
<svg version="1.0" xmlns="http://www.w3.org/2000/svg" width="1600px" height="651px" viewBox="0 0 16000 6510" preserveAspectRatio="xMidYMid meet">
<g id="layer101" fill="#6c63ff" stroke="none">
 <path d="M295 6495 c-75 -23 -140 -63 -187 -112 -84 -91 -111 -167 -106 -302 3 -79 8 -106 30 -154 32 -69 112 -156 170 -185 104 -53 82 -52 964 -52 947 0 854 -12 854 106 0 77 -17 104 -65 104 -35 0 -114 21 -149 40 -16 9 -43 33 -60 54 -28 34 -31 45 -31 106 0 61 3 72 31 106 17 21 44 45 60 54 36 19 115 40 153 40 46 0 61 27 61 107 0 55 -4 73 -18 86 -17 16 -89 17 -843 16 -638 -1 -833 -4 -864 -14z m1673 -87 l-3 -43 -810 -5 -810 -5 -53 -24 c-87 -39 -152 -138 -152 -231 0 -90 64 -191 148 -232 l47 -23 815 -5 815 -5 3 -43 3 -42 -833 2 -833 3 -63 34 c-75 41 -125 94 -160 170 -36 75 -37 201 -4 275 44 97 101 151 201 192 l56 24 818 0 818 0 -3 -42z m-240 -131 c-14 -13 -33 -36 -43 -50 l-17 -27 -660 0 -659 0 3 -22 3 -23 650 -3 650 -2 1 -55 0 -55 -650 -2 c-643 -3 -651 -3 -651 -23 0 -20 8 -20 663 -23 395 -1 662 -6 662 -11 0 -5 16 -26 35 -47 19 -20 35 -39 35 -41 0 -2 -316 -2 -702 -1 l-703 3 -47 28 c-119 70 -139 231 -40 325 57 53 35 51 791 52 l704 0 -25 -23z"/>
 <path d="M2580 6487 c-29 -15 -57 -41 -77 -71 l-33 -48 0 -674 0 -675 -22 12 c-13 7 -25 15 -28 19 -9 13 -155 88 -220 114 -106 41 -173 51 -355 51 -180 0 -261 -12 -362 -53 -29 -12 -53 -18 -53 -14 0 4 -4 2 -8 -4 -4 -5 -38 -28 -77 -49 -38 -21 -76 -45 -83 -52 -7 -7 -18 -13 -24 -13 -6 0 -53 -43 -104 -95 -153 -154 -222 -278 -285 -510 -20 -72 -18 -371 3 -445 41 -143 75 -222 143 -330 49 -77 152 -189 219 -238 28 -20 53 -39 56 -43 11 -14 201 -109 220 -109 10 0 21 -4 24 -8 3 -5 31 -14 63 -21 32 -7 71 -17 87 -22 41 -13 317 -11 373 2 110 26 213 64 293 106 47 25 87 49 90 52 3 4 28 23 55 43 47 34 114 101 173 172 62 75 135 213 167 319 l18 57 123 0 124 0 0 -1510 c0 -1283 2 -1515 14 -1538 19 -37 75 -89 109 -101 19 -7 226 -11 618 -11 l589 0 0 -330 c0 -387 -2 -379 95 -444 l38 -26 1371 0 1371 0 39 23 c22 12 53 39 70 60 l31 39 3 339 3 339 1080 0 c1183 0 1114 -4 1177 61 66 67 62 1 62 1115 l0 1014 225 0 225 0 0 -410 c0 -458 0 -456 68 -517 20 -18 53 -38 74 -43 23 -7 609 -9 1670 -8 l1633 3 35 24 c19 14 38 31 43 38 4 6 13 18 20 25 37 39 37 48 37 1446 0 1399 0 1391 -37 1430 -7 7 -16 19 -20 25 -5 7 -24 24 -43 38 l-35 24 -492 3 -492 3 -3 517 -3 517 -22 32 c-13 17 -23 34 -23 37 0 3 78 6 174 6 96 0 181 3 190 6 13 5 16 24 16 100 0 52 -5 105 -12 121 -16 36 -55 75 -91 91 -22 9 -586 12 -2634 12 l-2605 0 -40 -22 c-67 -38 -79 -69 -76 -195 l3 -108 190 -5 c112 -3 185 -9 177 -14 -8 -4 -22 -28 -33 -53 -17 -41 -19 -71 -19 -334 l0 -289 -464 0 -463 0 4 53 c4 66 21 277 33 427 6 63 13 154 16 203 l6 87 159 0 159 0 40 40 c39 39 40 41 40 113 0 43 -5 78 -12 85 -17 17 -1889 17 -1906 0 -7 -7 -12 -42 -12 -87 0 -74 0 -74 40 -113 l41 -38 159 0 158 0 6 -87 c3 -49 11 -140 16 -203 6 -63 15 -189 21 -280 5 -91 12 -173 15 -182 5 -17 -50 -18 -1050 -18 l-1056 0 0 425 c0 412 -1 427 -21 470 -12 25 -35 57 -51 70 -66 56 -60 55 -602 55 l-501 -1 -45 -22z m1079 -55 c64 -32 76 -59 79 -188 l4 -114 -612 0 -612 0 4 109 c3 121 13 144 78 189 l33 22 496 0 c452 0 499 -2 530 -18z m3661 -29 c0 -91 84 -83 -903 -83 -986 0 -907 -7 -907 82 l0 48 905 0 905 0 0 -47z m5576 13 c33 -33 34 -37 34 -110 l0 -76 -1148 0 -1148 0 -31 43 c-19 28 -49 53 -79 68 -47 23 -56 24 -274 24 -259 -1 -270 -3 -343 -85 l-45 -50 -1142 0 -1142 0 4 81 c3 77 5 82 36 110 l32 29 2606 0 2606 0 34 -34z m-2398 -120 c15 -8 36 -23 46 -35 l19 -21 -313 0 c-290 0 -311 1 -299 17 8 9 28 24 44 35 27 16 54 18 253 18 171 0 229 -3 250 -14z m-3578 -63 c0 -21 -9 -153 -20 -293 -11 -140 -23 -299 -27 -352 l-6 -98 -451 0 -452 0 -27 363 c-15 199 -27 374 -27 390 l0 27 505 0 505 0 0 -37z m5608 -73 c18 -11 41 -34 52 -52 19 -32 20 -52 20 -535 l0 -503 -80 0 -80 0 0 417 c0 373 -2 418 -17 435 -15 17 -96 18 -2169 18 -1944 0 -2154 -2 -2168 -16 -14 -14 -16 -146 -16 -1308 0 -991 3 -1295 12 -1304 9 -9 259 -12 1065 -12 l1053 0 0 -125 0 -125 -1092 0 c-1073 0 -1094 0 -1126 20 -18 11 -41 34 -52 52 -20 33 -20 54 -20 1493 0 1439 0 1460 20 1493 11 18 34 41 52 52 33 20 55 20 2273 20 2218 0 2240 0 2273 -20z m-8788 -975 l0 -895 -444 0 -443 0 -7 59 c-22 191 -119 394 -265 553 l-61 66 0 556 0 556 610 0 610 0 0 -895z m8650 295 l0 -410 -1017 -2 c-970 -3 -1020 -4 -1052 -22 -19 -10 -47 -32 -63 -50 -58 -63 -58 -58 -58 -888 l0 -758 -1040 0 -1040 0 0 1270 0 1270 2135 0 2135 0 0 -410z m-4530 -465 l0 -425 -2035 0 -2035 0 0 425 0 425 2035 0 2035 0 0 -425z m-5884 144 c402 -56 725 -358 810 -757 16 -79 18 -274 3 -358 -67 -378 -361 -685 -742 -771 -97 -22 -307 -22 -404 0 -226 51 -435 187 -570 370 -60 83 -117 197 -150 304 -24 80 -27 103 -27 258 -1 133 3 184 17 233 57 210 167 384 318 508 213 174 480 250 745 213z m11663 -164 c19 -11 43 -33 55 -48 l21 -28 3 -1240 2 -1239 -1730 0 -1730 0 0 1230 c0 1328 -3 1257 52 1306 12 12 37 26 53 32 21 7 531 10 1635 9 1585 -2 1605 -2 1639 -22z m-5777 -1162 l3 -708 23 -33 c13 -17 40 -44 59 -60 l36 -27 649 -3 648 -2 0 -857 c0 -783 -1 -858 -17 -875 -15 -17 -57 -18 -925 -18 l-908 0 0 971 c0 666 -3 984 -11 1013 -13 54 -59 110 -110 136 -37 20 -65 20 -1392 20 l-1354 0 -44 -23 c-24 -13 -57 -43 -74 -66 l-30 -43 -3 -1004 -2 -1004 -416 0 c-267 0 -422 4 -435 10 -19 11 -19 36 -19 1355 l0 1345 28 0 c54 0 127 29 159 62 60 64 63 77 63 308 l0 210 2035 0 2035 0 2 -707z m-4122 355 c0 -65 -24 -115 -69 -145 -34 -23 -35 -23 -432 -23 -438 0 -409 -4 -393 57 l6 23 292 2 c283 3 291 4 291 23 0 19 -8 20 -290 23 l-290 2 3 45 4 45 439 0 439 0 0 -52z m-260 -1550 c0 -851 4 -1336 10 -1359 6 -20 20 -45 31 -55 20 -18 45 -19 455 -22 l434 -3 0 -174 0 -175 -573 0 -573 0 -44 22 c-33 17 -51 35 -67 68 l-23 44 0 1488 0 1488 175 0 175 0 0 -1322z m3810 684 c19 -9 45 -32 57 -51 l23 -34 0 -1408 0 -1409 -1455 0 -1455 0 0 1397 c0 1374 0 1397 20 1438 12 25 34 49 57 63 l38 22 1340 0 c1256 0 1342 -1 1375 -18z m2400 -1332 c0 -1087 2 -1049 -51 -1096 -13 -12 -39 -26 -58 -33 -25 -8 -328 -11 -1092 -11 l-1059 0 0 175 0 175 910 0 c989 0 952 -2 978 55 9 19 12 240 12 885 l0 860 180 0 180 0 0 -1010z m4030 298 c0 -119 -14 -159 -69 -195 l-34 -23 -1626 0 c-1605 0 -1626 0 -1659 20 -59 36 -72 71 -72 193 l0 107 1730 0 1730 0 0 -102z m-6350 -2026 c0 -98 -2 -111 -25 -144 -50 -73 47 -69 -1447 -66 -1332 3 -1337 3 -1364 24 -60 44 -69 67 -72 185 l-4 109 1456 0 1456 0 0 -108z"/>
 <path d="M3081 6334 c-24 -30 -26 -46 -10 -77 16 -30 28 -37 66 -37 22 0 38 8 52 26 27 35 26 59 -4 89 -33 34 -77 33 -104 -1z"/>
 <path d="M3084 5335 c-11 -29 11 -36 97 -33 76 3 84 5 84 23 0 18 -8 20 -88 23 -73 2 -88 0 -93 -13z"/>
 <path d="M2785 5278 c-85 -67 -55 -194 51 -214 93 -17 170 82 130 168 -32 66 -125 90 -181 46z m127 -59 c51 -68 -45 -144 -106 -83 -21 20 -20 73 1 96 25 27 80 21 105 -13z"/>
 <path d="M3091 5201 c-8 -5 -11 -16 -8 -25 6 -14 26 -16 159 -14 145 3 153 4 153 23 0 19 -7 20 -145 22 -80 2 -151 -1 -159 -6z"/>
 <path d="M3090 5055 c-26 -31 0 -35 215 -35 215 0 241 4 215 35 -10 12 -50 15 -215 15 -165 0 -205 -3 -215 -15z"/>
 <path d="M6382 5189 c-96 -20 -141 -146 -81 -223 76 -97 232 -60 255 59 18 98 -75 185 -174 164z m95 -73 c61 -53 21 -156 -62 -156 -21 0 -44 9 -62 24 -61 53 -21 156 62 156 21 0 44 -9 62 -24z"/>
 <path d="M1693 4614 c-4 -11 45 -171 126 -416 123 -369 135 -399 154 -396 13 2 23 11 24 23 1 11 -58 196 -130 410 -102 300 -136 391 -150 393 -9 2 -20 -4 -24 -14z"/>
 <path d="M1427 4359 c-97 -86 -147 -138 -145 -149 5 -26 282 -270 307 -270 43 0 22 38 -66 117 -48 43 -107 96 -130 118 l-43 40 130 115 c98 85 130 119 128 134 -2 12 -10 22 -18 24 -8 1 -82 -57 -163 -129z"/>
 <path d="M2087 4483 c-20 -19 5 -49 123 -153 72 -63 130 -116 130 -116 0 -1 -59 -55 -131 -119 -127 -114 -148 -145 -106 -153 21 -4 301 241 305 268 2 12 -43 59 -144 149 -141 125 -162 140 -177 124z"/>
 <path d="M10872 4493 c-33 -13 -42 -60 -42 -223 l0 -162 30 -29 30 -30 176 3 c229 4 214 -12 214 227 0 236 15 221 -221 220 -96 0 -180 -3 -187 -6z m356 -214 c3 -198 22 -179 -180 -179 -111 0 -140 3 -152 16 -13 12 -16 41 -16 152 0 202 -19 183 179 180 l166 -3 3 -166z"/>
 <path d="M12300 4402 c0 -39 0 -39 -54 -51 -71 -16 -182 -70 -252 -123 -105 -79 -192 -208 -230 -338 -22 -75 -22 -75 -60 -80 l-39 -5 0 -100 0 -100 39 -5 c38 -5 40 -7 51 -55 50 -212 209 -392 413 -469 37 -14 84 -28 105 -32 35 -6 37 -8 37 -45 l0 -40 103 3 102 3 3 37 c3 32 8 39 30 44 182 40 337 154 437 320 l35 58 0 -122 c0 -116 -1 -122 -25 -146 -30 -31 -32 -65 -4 -100 26 -33 79 -36 109 -6 29 29 27 84 -5 112 l-25 22 0 207 0 208 33 3 32 3 3 103 3 102 -36 0 -35 0 0 216 0 217 25 23 c35 32 34 85 -1 113 -35 28 -69 26 -99 -4 -32 -31 -32 -66 0 -103 24 -29 25 -35 25 -163 l0 -134 -35 61 c-86 151 -238 267 -406 311 l-69 17 0 38 0 38 -105 0 -105 0 0 -38z m160 -62 l0 -50 -55 0 -55 0 0 50 0 50 55 0 55 0 0 -50z m-158 -67 l3 -28 103 -3 102 -3 0 31 c0 36 9 37 93 9 183 -61 336 -221 391 -408 9 -30 16 -56 16 -58 0 -2 -16 -3 -35 -3 l-36 0 3 -102 3 -103 33 -3 c37 -4 37 -2 16 -73 -57 -192 -204 -342 -403 -410 -69 -24 -69 -24 -73 9 l-3 27 -102 3 -103 3 0 -31 c0 -38 -15 -39 -103 -7 -172 63 -311 197 -370 357 -42 113 -42 118 -5 122 l33 3 0 100 0 100 -32 5 -31 5 23 72 c60 188 210 338 400 399 62 20 73 18 77 -13z m-482 -563 l0 -50 -55 0 -55 0 0 50 0 50 55 0 55 0 0 -50z m1270 0 l0 -50 -50 0 -50 0 0 50 0 50 50 0 50 0 0 -50z m-630 -650 l0 -50 -50 0 -50 0 0 50 0 50 50 0 50 0 0 -50z"/>
 <path d="M10883 3920 c-49 -20 -55 -45 -51 -228 4 -228 -13 -212 224 -212 240 0 224 -16 224 218 0 95 -4 182 -10 192 -5 10 -24 23 -41 29 -38 13 -314 14 -346 1z m342 -220 l0 -165 -166 -3 c-166 -2 -167 -2 -173 20 -8 30 -8 282 0 302 6 14 28 16 173 14 l166 -3 0 -165z"/>
 <path d="M10859 3321 l-29 -29 0 -162 c0 -167 9 -210 45 -224 9 -3 92 -6 184 -6 155 0 170 2 195 21 l26 20 0 184 0 184 -26 20 c-25 19 -40 21 -196 21 l-170 0 -29 -29z m366 -196 l0 -170 -160 -3 c-142 -2 -161 -1 -172 15 -16 21 -18 285 -3 314 10 18 21 19 173 17 l162 -3 0 -170z"/>
 <path d="M4797 2766 c-9 -23 18 -37 65 -34 35 2 43 7 43 23 0 17 -8 20 -51 23 -38 2 -53 -1 -57 -12z"/>
 <path d="M4992 2758 c3 -23 3 -23 188 -23 178 0 185 1 185 20 0 19 -8 20 -188 23 l-188 2 3 -22z"/>
 <path d="M4803 2519 c-23 -23 -2 -39 47 -39 52 0 69 12 50 35 -15 18 -81 20 -97 4z"/>
 <path d="M4997 2523 c-4 -3 -7 -15 -7 -25 0 -17 17 -18 413 -16 404 3 412 3 412 23 0 20 -8 20 -406 23 -223 1 -408 -1 -412 -5z"/>
 <path d="M4802 2258 c-20 -25 2 -39 54 -36 41 3 49 6 49 23 0 17 -8 20 -46 23 -29 2 -50 -2 -57 -10z"/>
 <path d="M4994 2255 c-13 -32 7 -35 221 -35 172 0 214 3 218 14 12 32 -16 36 -225 36 -173 0 -210 -2 -214 -15z"/>
 <path d="M5503 2255 c-3 -9 -1 -21 4 -26 5 -5 97 -8 224 -7 206 3 214 4 214 23 0 19 -8 20 -218 23 -191 2 -218 0 -224 -13z"/>
 <path d="M6017 2257 c-12 -32 8 -38 129 -35 111 3 119 4 119 23 0 19 -8 20 -121 23 -96 2 -123 0 -127 -11z"/>
 <path d="M4797 1996 c-8 -21 14 -36 54 -36 37 0 66 21 54 40 -10 16 -102 13 -108 -4z"/>
 <path d="M4992 1988 l3 -23 306 -3 c260 -2 308 0 319 12 6 9 9 20 5 26 -4 6 -113 10 -321 10 l-315 0 3 -22z"/>
 <path d="M5695 2000 c-4 -6 -1 -17 5 -25 11 -13 74 -15 410 -15 336 0 399 2 410 15 6 8 9 19 5 25 -4 7 -142 10 -415 10 -273 0 -411 -3 -415 -10z"/>
 <path d="M4803 1749 c-23 -23 -2 -39 47 -39 52 0 69 12 50 35 -15 18 -81 20 -97 4z"/>
 <path d="M4997 1753 c-4 -3 -7 -15 -7 -25 0 -17 16 -18 314 -18 208 0 317 4 321 10 4 6 1 17 -5 25 -10 13 -62 15 -315 15 -166 0 -305 -3 -308 -7z"/>
 <path d="M5701 1746 c-27 -32 -2 -36 220 -36 l220 0 -3 23 c-3 22 -4 22 -214 25 -176 2 -213 0 -223 -12z"/>
 <path d="M4797 1486 c-9 -23 18 -37 65 -34 35 2 43 7 43 23 0 17 -8 20 -51 23 -38 2 -53 -1 -57 -12z"/>
 <path d="M4993 1485 c-11 -31 13 -36 163 -33 141 3 149 4 149 23 0 19 -8 20 -153 23 -132 2 -153 0 -159 -13z"/>
 <path d="M5373 1485 c-11 -31 13 -36 163 -33 141 3 149 4 149 23 0 19 -8 20 -153 23 -132 2 -153 0 -159 -13z"/>
 <path d="M5764 1485 c-11 -29 11 -36 97 -33 76 3 84 5 84 23 0 18 -8 20 -88 23 -73 2 -88 0 -93 -13z"/>
 <path d="M4797 1226 c-8 -21 14 -36 54 -36 37 0 66 21 54 40 -10 16 -102 13 -108 -4z"/>
 <path d="M4992 1218 c3 -23 4 -23 214 -26 176 -2 213 0 223 12 27 32 2 36 -220 36 l-220 0 3 -22z"/>
 <path d="M5505 1230 c-4 -6 -1 -17 5 -25 11 -13 69 -15 374 -15 198 0 367 4 375 9 8 5 11 16 8 25 -6 14 -47 16 -381 16 -250 0 -377 -3 -381 -10z"/>
 <path d="M6337 1226 c-12 -30 16 -36 158 -36 142 0 170 6 158 36 -8 20 -308 20 -316 0z"/>
 <path d="M4802 978 c-20 -25 2 -39 54 -36 41 3 49 6 49 23 0 17 -8 20 -46 23 -29 2 -50 -2 -57 -10z"/>
 <path d="M4997 984 c-4 -4 -7 -16 -7 -26 0 -17 8 -18 108 -16 99 3 107 4 107 23 0 18 -8 20 -101 23 -55 1 -103 0 -107 -4z"/>
 <path d="M5287 984 c-4 -4 -7 -16 -7 -26 0 -17 8 -18 108 -16 99 3 107 4 107 23 0 18 -8 20 -101 23 -55 1 -103 0 -107 -4z"/>
 <path d="M5573 979 c-6 -6 -9 -18 -6 -25 4 -11 41 -14 183 -14 180 0 205 5 180 35 -10 12 -45 15 -179 15 -110 0 -171 -4 -178 -11z"/>
 <path d="M6010 975 c-26 -31 -1 -35 255 -35 256 0 281 4 255 35 -10 12 -55 15 -255 15 -200 0 -245 -3 -255 -15z"/>
 <path d="M10466 2264 c-48 -47 14 -116 75 -84 22 12 27 68 7 88 -17 17 -64 15 -82 -4z"/>
 <path d="M10653 2254 c-15 -24 -15 -29 -2 -53 11 -20 22 -26 49 -26 27 0 38 6 49 26 13 24 13 29 -2 53 -12 18 -26 26 -47 26 -21 0 -35 -8 -47 -26z"/>
 <path d="M10843 2254 c-15 -24 -15 -29 -2 -53 20 -36 71 -41 93 -9 21 29 20 51 -2 71 -28 26 -69 21 -89 -9z"/>
 <path d="M4670 250 c-23 -23 -24 -33 -10 -60 23 -42 76 -45 102 -6 21 31 -12 86 -52 86 -11 0 -29 -9 -40 -20z"/>
 <path d="M4867 252 c-24 -26 -21 -68 5 -86 30 -21 44 -20 68 4 27 27 26 65 -2 84 -29 21 -51 20 -71 -2z"/>
 <path d="M5062 254 c-32 -22 -30 -69 4 -91 24 -15 29 -15 53 -2 32 18 40 63 15 90 -21 23 -42 24 -72 3z"/>
 <path d="M13343 6437 c16 -211 197 -377 412 -377 142 0 293 87 361 208 30 52 54 141 54 196 l0 46 -416 0 -417 0 6 -73z m764 -24 c-10 -61 -64 -159 -110 -199 -47 -41 -124 -79 -178 -89 -31 -6 -37 -4 -42 14 -7 29 -47 29 -47 0 0 -19 -4 -21 -37 -14 -60 10 -138 50 -185 94 -51 46 -97 131 -105 190 l-6 41 358 0 358 0 -6 -37z"/>
 <path d="M14536 6499 c-25 -15 -52 -43 -65 -68 -16 -30 -15 -1183 1 -1199 9 -9 74 -12 230 -12 l217 0 45 -45 c45 -44 46 -45 112 -45 67 0 68 0 111 45 l43 45 198 0 c244 0 232 -7 232 136 l0 100 54 17 c71 21 156 76 195 126 17 22 45 70 62 107 29 64 31 73 27 173 -3 96 -6 112 -36 173 -18 37 -50 84 -71 106 -43 44 -127 94 -188 113 l-43 12 0 54 c0 64 -26 122 -69 152 -29 21 -38 21 -533 21 -342 -1 -509 -4 -522 -11z m1035 -77 l29 -32 0 -555 0 -555 -190 0 -190 0 0 145 0 145 50 0 c55 0 104 20 114 45 11 30 7 353 -6 380 -17 37 -65 47 -205 43 -172 -4 -163 8 -163 -233 0 -226 0 -226 100 -233 l60 -4 0 -144 0 -144 -330 0 -330 0 2 559 c3 543 4 560 23 581 11 12 29 26 40 31 11 4 233 7 493 6 l474 -2 29 -33z m153 -223 c77 -28 149 -96 188 -177 29 -59 32 -77 32 -152 1 -71 -4 -94 -26 -142 -36 -78 -101 -145 -173 -179 -87 -42 -95 -40 -95 24 0 51 1 53 35 66 77 28 141 112 152 198 12 107 -52 221 -147 259 -40 16 -40 17 -40 70 0 30 4 54 10 54 5 0 34 -9 64 -21z m1 -192 c68 -68 81 -141 40 -224 -22 -44 -84 -103 -108 -103 -4 0 -7 83 -7 185 0 212 2 216 75 142z m-387 -197 c2 -146 1 -166 -15 -177 -18 -14 -216 -19 -247 -7 -14 5 -16 31 -16 180 l0 175 138 -3 137 -3 3 -165z m-187 -594 c-18 -22 -68 -39 -95 -32 -13 3 -34 15 -47 26 l-24 19 89 1 c74 0 87 -2 77 -14z"/>
 </g>

</svg>
