<svg version="1.0" xmlns="http://www.w3.org/2000/svg" width="56px" height="56px" viewBox="0 0 1810 1810" preserveAspectRatio="xMidYMid meet">
<g id="layer101" fill="#6c63ff" stroke="none">
 <path d="M630 1298 c0 -210 2 -379 4 -377 2 2 81 107 175 233 l171 230 0 148 0 148 -175 0 -175 0 0 -382z"/>
 <path d="M975 1303 c-153 -207 -278 -382 -279 -387 -1 -6 125 -183 278 -394 l279 -382 234 0 c184 0 233 3 227 12 -8 12 -206 284 -309 423 -28 39 -95 129 -149 202 l-97 132 58 80 c32 44 155 211 273 372 118 161 219 298 223 306 7 11 -34 13 -226 13 l-234 0 -278 -377z"/>
 <path d="M590 863 c-19 -27 -144 -197 -277 -380 -134 -182 -243 -334 -243 -337 0 -3 105 -6 233 -6 l232 1 164 225 163 226 -33 47 c-121 170 -195 270 -200 271 -3 0 -21 -21 -39 -47z"/>
 </g>

</svg>
